<?xml version="1.0" encoding="UTF-8"?>
<svg id="Layer_2" xmlns="http://www.w3.org/2000/svg" xmlns:xlink="http://www.w3.org/1999/xlink" viewBox="0 0 199.9 199.9">
  <defs>
    <style>
      .cls-1 {
        fill: #fff;
      }

      .cls-2 {
        stroke-width: 4.82px;
      }

      .cls-2, .cls-3 {
        stroke: #1f3151;
      }

      .cls-2, .cls-3, .cls-4 {
        fill: none;
        stroke-miterlimit: 10;
      }

      .cls-5 {
        fill: #1f3151;
      }

      .cls-3 {
        stroke-width: 3.61px;
      }

      .cls-4 {
        stroke: url(#linear-gradient);
        stroke-width: 2px;
      }
    </style>
    <linearGradient id="linear-gradient" x1="99.95" y1="199.9" x2="99.95" y2="0" gradientUnits="userSpaceOnUse">
      <stop offset="0" stop-color="#fff" stop-opacity="0"/>
      <stop offset=".09" stop-color="#d9dce2" stop-opacity=".17"/>
      <stop offset=".33" stop-color="#8892a2" stop-opacity=".53"/>
      <stop offset=".56" stop-color="#4d5c75" stop-opacity=".79"/>
      <stop offset=".79" stop-color="#2a3b5a" stop-opacity=".95"/>
      <stop offset="1" stop-color="#1f3151"/>
    </linearGradient>
  </defs>
  <g id="Layer_1-2" data-name="Layer_1">
    <g>
      <circle class="cls-4" cx="99.95" cy="99.95" r="98.95"/>
      <g id="g135">
        <g id="g134">
          <g id="g133">
            <g id="g125">
              <path id="path119" class="cls-5" d="M143.18,138.73s-1.75,27.42-3.85,27.42c0,0-14.18-22.4-14.18-25.94l-.11-.05c.79-1.75,1.22-3.59,1.22-5.59l2.85-22.46c2.37,3.9,14.07,23.46,14.07,26.63h0Z"/>
              <path id="path120" class="cls-1" d="M129.11,112.11l-2.85,22.46c0,2-.42,3.85-1.22,5.59-2,4.59-6.38,7.86-11.6,8.22-.37.05-.69.05-1.06.05h-21.78c-6.07,0-11.28-3.95-13.07-9.49-.47-1.37-.73-2.85-.73-4.38l-3.11-24.62-4.06-32.48c-1.95-15.6,1.75-31.48,10.59-44.44,8.22-12.03,18.03-23.73,22.15-23.73,2.06,0,5.49,3.01,9.39,7.54,3.9,4.54,8.28,10.59,12.23,16.66,8.28,12.81,11.6,28.16,9.65,43.29l-4.54,35.33h0ZM113.97,65.81c0-6.8-5.54-12.29-12.34-12.29s-12.34,5.49-12.34,12.29,5.54,12.34,12.34,12.34,12.34-5.49,12.34-12.34ZM109.81,102.45c0-4.43-3.53-7.96-7.91-7.96s-7.96,3.53-7.96,7.96,3.53,7.91,7.96,7.91,7.91-3.53,7.91-7.91Z"/>
              <path id="path121" class="cls-1" d="M113.44,148.43c2.26,4.43,6.64,17.88,6.01,22.99-.53,4.21-11.12,12.76-14.71,17.03-.79.89-2,1-2.85.22-4.8-4.48-15.93-11.92-17.19-16.24-1.84-5.96,1.79-17.82,5.8-22.78.11,6.16,8.59,17.35,11.39,17.39,3.48,0,10.12-12.87,10.5-18.61.37,0,.69,0,1.06-.05v.05h0Z"/>
              <path id="path122" class="cls-1" d="M90.51,149.64c0-.42.05-.84.11-1.22h21.78c-.37,5.74-7.02,18.61-10.5,18.61-2.79-.05-11.28-11.23-11.39-17.39Z"/>
              <path id="path123" class="cls-5" d="M101.64,53.53c6.8,0,12.34,5.49,12.34,12.29s-5.54,12.34-12.34,12.34-12.34-5.49-12.34-12.34,5.54-12.29,12.34-12.29Z"/>
              <path id="path124" class="cls-5" d="M101.9,94.49c4.38,0,7.91,3.53,7.91,7.96s-3.53,7.91-7.91,7.91-7.96-3.53-7.96-7.91,3.53-7.96,7.96-7.96Z"/>
              <path id="path125" class="cls-5" d="M76.8,134.57c0,1.53.26,3.01.73,4.38,0,3.59-16.4,25.94-16.4,25.94-2.42,0-4.43-27.42-4.43-27.42,0-3.53,16.88-27.52,16.88-27.52h.11s3.11,24.62,3.11,24.62Z"/>
            </g>
            <g id="g132">
              <path id="path126" class="cls-2" d="M112.4,148.43h-21.78c-6.07,0-11.28-3.95-13.07-9.49-.47-1.37-.73-2.85-.73-4.38l-3.11-24.62-4.06-32.48c-1.95-15.6,1.75-31.48,10.59-44.44,8.22-12.03,18.03-23.73,22.15-23.73,2.06,0,5.49,3.01,9.39,7.54,3.9,4.54,8.28,10.59,12.23,16.66,8.28,12.81,11.6,28.16,9.65,43.29l-4.54,35.33-2.85,22.46c0,2-.42,3.85-1.22,5.59-2,4.59-6.38,7.86-11.6,8.22-.37.05-.69.05-1.06.05Z"/>
              <path id="path127" class="cls-2" d="M113.97,65.81c0,6.85-5.54,12.34-12.34,12.34s-12.34-5.49-12.34-12.34,5.54-12.29,12.34-12.29,12.34,5.49,12.34,12.29Z"/>
              <path id="path128" class="cls-2" d="M109.81,102.45c0,4.38-3.53,7.91-7.91,7.91s-7.96-3.53-7.96-7.91,3.53-7.96,7.96-7.96,7.91,3.53,7.91,7.96Z"/>
              <path id="path129" class="cls-2" d="M77.54,138.94c0,3.59-16.4,25.94-16.4,25.94-2.42,0-4.43-27.42-4.43-27.42,0-3.53,16.88-27.52,16.88-27.52"/>
              <path id="path130" class="cls-2" d="M125.16,140.2c0,3.53,14.18,25.94,14.18,25.94,2.11,0,3.85-27.42,3.85-27.42,0-3.17-11.7-22.73-14.07-26.63-.26-.42-.42-.69-.42-.69"/>
              <path id="path131" class="cls-3" d="M90.62,148.43c-.05.37-.11.79-.11,1.22.11,6.16,8.59,17.35,11.39,17.39,3.48,0,10.12-12.87,10.5-18.61"/>
              <path id="path132" class="cls-3" d="M90.98,149.06c-.16.16-.31.37-.47.58-4.01,4.96-7.64,16.82-5.8,22.78,1.26,4.32,12.39,11.76,17.19,16.24.84.79,2.06.69,2.85-.22,3.59-4.27,14.18-12.81,14.71-17.03.64-5.12-3.74-18.56-6.01-22.99"/>
            </g>
          </g>
          <circle id="circle133" class="cls-1" cx="107.33" cy="59.95" r="4.19"/>
          <circle id="circle134" class="cls-1" cx="106.59" cy="97.6" r="2.78"/>
        </g>
        <line id="line134" class="cls-3" x1="78.8" y1="133.84" x2="128.83" y2="133.84"/>
        <path id="path134" class="cls-3" d="M73.61,46.62c7.97-6.36,18.15-9.87,28.35-9.76,10.18.11,20.31,3.83,28.13,10.35"/>
      </g>
    </g>
  </g>
</svg>