<?xml version="1.0" encoding="UTF-8"?>
<svg id="Layer_2" xmlns="http://www.w3.org/2000/svg" xmlns:xlink="http://www.w3.org/1999/xlink" viewBox="0 0 198.9 198.9">
  <defs>
    <style>
      .cls-1 {
        stroke-width: 3.68px;
      }

      .cls-1, .cls-2 {
        fill: none;
        stroke: #1f3151;
      }

      .cls-1, .cls-2, .cls-3 {
        stroke-miterlimit: 10;
      }

      .cls-4 {
        fill: #faa51a;
      }

      .cls-5 {
        fill: #fff;
      }

      .cls-2 {
        stroke-width: 2.45px;
      }

      .cls-3 {
        fill: url(#linear-gradient);
        stroke: url(#linear-gradient-2);
      }

      .cls-6 {
        fill: #1f3151;
      }

      .cls-7 {
        fill: #ffca37;
      }
    </style>
    <linearGradient id="linear-gradient" x1="99.45" y1="198.4" x2="99.45" y2=".5" gradientUnits="userSpaceOnUse">
      <stop offset="0" stop-color="#fff"/>
      <stop offset="1" stop-color="#1f3151"/>
    </linearGradient>
    <linearGradient id="linear-gradient-2" x1="99.45" y1="198.9" x2="99.45" y2="0" gradientUnits="userSpaceOnUse">
      <stop offset="0" stop-color="#fff"/>
      <stop offset=".02" stop-color="#e4e7ea"/>
      <stop offset=".07" stop-color="#bbc1ca"/>
      <stop offset=".12" stop-color="#969ead"/>
      <stop offset=".17" stop-color="#758094"/>
      <stop offset=".23" stop-color="#5a677f"/>
      <stop offset=".3" stop-color="#44536e"/>
      <stop offset=".38" stop-color="#334360"/>
      <stop offset=".48" stop-color="#273857"/>
      <stop offset=".62" stop-color="#203252"/>
      <stop offset="1" stop-color="#1f3151"/>
    </linearGradient>
  </defs>
  <g id="Layer_1-2" data-name="Layer_1">
    <g>
      <circle class="cls-3" cx="99.45" cy="99.45" r="98.95"/>
      <g>
        <g id="g43">
          <g id="g42">
            <g id="g34">
              <path id="path28" class="cls-6" d="M142.97,137.8s-1.75,27.62-3.88,27.62c0,0-14.28-22.56-14.28-26.12l-.11-.05c.8-1.69,1.23-3.61,1.23-5.57l2.92-22.62c2.39,4.04,14.12,23.58,14.12,26.76h0Z"/>
              <path id="path29" class="cls-5" d="M128.85,111.04l-2.92,22.62c0,1.96-.43,3.88-1.23,5.57-1.96,4.63-6.43,7.91-11.68,8.28-.32.05-.69.05-1.01.05h-21.99c-6.11,0-11.36-3.99-13.16-9.51-.48-1.39-.75-2.87-.75-4.4l-3.13-24.85-4.09-32.71c-1.96-15.72,1.75-31.64,10.67-44.76,8.33-12.11,18.21-23.9,22.31-23.9,2.07,0,5.52,3.03,9.45,7.59,3.93,4.56,8.33,10.67,12.32,16.83,8.33,12.85,11.68,28.31,9.77,43.54l-4.56,35.63ZM113.55,64.42c0-6.91-5.57-12.43-12.43-12.43s-12.43,5.52-12.43,12.43,5.57,12.37,12.43,12.37,12.43-5.52,12.43-12.37ZM109.41,101.26c0-4.47-3.61-8.02-8.02-8.02s-8.02,3.56-8.02,8.02,3.61,8.02,8.02,8.02,8.02-3.61,8.02-8.02Z"/>
              <path id="path30" class="cls-7" d="M113.02,147.57c2.33,4.52,6.69,18.05,6.05,23.15-.48,4.25-11.2,12.85-14.81,17.15-.75.91-2.01,1.01-2.87.21-4.83-4.52-15.99-12-17.31-16.31-1.8-6,1.85-17.9,5.84-22.94.21,6.27,8.71,17.42,11.47,17.47,3.56,0,10.2-12.96,10.63-18.75.32,0,.69,0,1.01-.05v.05h0Z"/>
              <path id="path31" class="cls-4" d="M89.92,148.84c0-.48.05-.91.11-1.28h21.99c-.43,5.79-7.07,18.75-10.63,18.75-2.76-.05-11.26-11.2-11.47-17.47Z"/>
              <path id="path32" class="cls-6" d="M101.13,51.99c6.85,0,12.43,5.52,12.43,12.43s-5.57,12.37-12.43,12.37-12.43-5.52-12.43-12.37,5.57-12.43,12.43-12.43Z"/>
              <path id="path33" class="cls-6" d="M101.39,93.25c4.4,0,8.02,3.56,8.02,8.02s-3.61,8.02-8.02,8.02-8.02-3.61-8.02-8.02,3.61-8.02,8.02-8.02Z"/>
              <path id="path34" class="cls-6" d="M76.11,133.67c0,1.55.27,3.03.75,4.4,0,3.56-16.47,26.12-16.47,26.12-2.49,0-4.47-27.67-4.47-27.67,0-3.56,16.99-27.72,16.99-27.72h.05l3.13,24.85h.01Z"/>
            </g>
            <g id="g41">
              <path id="path35" class="cls-1" d="M112.01,147.57h-21.99c-6.11,0-11.36-3.99-13.16-9.51-.48-1.39-.75-2.87-.75-4.4l-3.13-24.85-4.09-32.71c-1.96-15.72,1.75-31.64,10.67-44.76,8.33-12.11,18.21-23.9,22.31-23.9,2.07,0,5.52,3.03,9.45,7.59,3.93,4.56,8.33,10.67,12.32,16.83,8.33,12.85,11.68,28.31,9.77,43.54l-4.56,35.63-2.92,22.62c0,1.96-.43,3.88-1.23,5.57-1.96,4.63-6.43,7.91-11.68,8.28-.32.05-.69.05-1.01.05Z"/>
              <path id="path36" class="cls-1" d="M113.55,64.42c0,6.85-5.57,12.37-12.43,12.37s-12.43-5.52-12.43-12.37,5.57-12.43,12.43-12.43,12.43,5.52,12.43,12.43Z"/>
              <path id="path37" class="cls-1" d="M109.41,101.26c0,4.4-3.61,8.02-8.02,8.02s-8.02-3.61-8.02-8.02,3.61-8.02,8.02-8.02,8.02,3.56,8.02,8.02Z"/>
              <path id="path38" class="cls-1" d="M76.86,138.07c0,3.56-16.47,26.12-16.47,26.12-2.49,0-4.47-27.67-4.47-27.67,0-3.56,16.99-27.72,16.99-27.72"/>
              <path id="path39" class="cls-1" d="M124.81,139.29c0,3.56,14.28,26.12,14.28,26.12,2.12,0,3.88-27.62,3.88-27.62,0-3.19-11.73-22.72-14.12-26.76-.32-.48-.48-.75-.48-.75"/>
              <path id="path40" class="cls-1" d="M90.03,147.57c-.05.37-.11.8-.11,1.28.21,6.27,8.71,17.42,11.47,17.47,3.56,0,10.2-12.96,10.63-18.75"/>
              <path id="path41" class="cls-1" d="M90.46,148.21c-.16.21-.32.37-.53.64-3.99,5.04-7.64,16.94-5.84,22.94,1.33,4.31,12.48,11.79,17.31,16.31.85.8,2.12.69,2.87-.21,3.61-4.31,14.34-12.91,14.81-17.15.64-5.09-3.72-18.64-6.05-23.15"/>
            </g>
          </g>
          <circle id="circle42" class="cls-5" cx="106.89" cy="58.46" r="4.22"/>
          <circle id="circle43" class="cls-5" cx="105.04" cy="96.79" r="2.81"/>
        </g>
        <line id="line43" class="cls-2" x1="76.13" y1="132.89" x2="124.27" y2="132.89"/>
        <path id="path43" class="cls-2" d="M72.91,45.05c8.02-6.4,18.28-9.94,28.55-9.83,10.26.11,20.45,3.85,28.34,10.42"/>
      </g>
    </g>
  </g>
</svg>