<?xml version="1.0" encoding="UTF-8"?>
<svg id="Layer_2" xmlns="http://www.w3.org/2000/svg" xmlns:xlink="http://www.w3.org/1999/xlink" viewBox="0 0 327.83 51.36">
  <defs>
    <style>
      .cls-1 {
        fill: #faa51a;
      }

      .cls-2, .cls-3 {
        fill: #fff;
      }

      .cls-4 {
        stroke-width: .62px;
      }

      .cls-4, .cls-5 {
        fill: none;
        stroke: #1f3151;
      }

      .cls-4, .cls-5, .cls-6 {
        stroke-miterlimit: 10;
      }

      .cls-5 {
        stroke-width: .94px;
      }

      .cls-6 {
        fill: url(#linear-gradient);
        stroke: url(#linear-gradient-2);
      }

      .cls-7 {
        fill: #1f3151;
      }

      .cls-3 {
        font-family: NotoMono, 'Noto Mono';
        font-size: 37.17px;
      }

      .cls-8 {
        fill: #ffca37;
      }
    </style>
    <linearGradient id="linear-gradient" x1="25.68" y1="50.86" x2="25.68" y2=".5" gradientUnits="userSpaceOnUse">
      <stop offset="0" stop-color="#fff"/>
      <stop offset="1" stop-color="#1f3151"/>
    </linearGradient>
    <linearGradient id="linear-gradient-2" x1="25.68" y1="51.36" x2="25.68" y2="0" gradientUnits="userSpaceOnUse">
      <stop offset="0" stop-color="#fff"/>
      <stop offset=".05" stop-color="#e7e9ed"/>
      <stop offset=".19" stop-color="#b3b9c4"/>
      <stop offset=".33" stop-color="#858fa0"/>
      <stop offset=".46" stop-color="#606d84"/>
      <stop offset=".6" stop-color="#43526d"/>
      <stop offset=".74" stop-color="#2f405d"/>
      <stop offset=".87" stop-color="#233454"/>
      <stop offset="1" stop-color="#1f3151"/>
    </linearGradient>
  </defs>
  <g id="Layer_1-2" data-name="Layer_1">
    <g>
      <g>
        <circle class="cls-6" cx="25.68" cy="25.68" r="25.18"/>
        <g>
          <g id="g43">
            <g id="g42">
              <g id="g34">
                <path id="path28" class="cls-7" d="M36.75,35.44s-.45,7.03-.99,7.03c0,0-3.63-5.74-3.63-6.65h-.03c.2-.44.31-.93.31-1.43l.74-5.76c.61,1.03,3.59,6,3.59,6.81h0Z"/>
                <path id="path29" class="cls-2" d="M33.16,28.63l-.74,5.76c0,.5-.11.99-.31,1.42-.5,1.18-1.64,2.01-2.97,2.11-.08.01-.17.01-.26.01h-5.6c-1.55,0-2.89-1.01-3.35-2.42-.12-.35-.19-.73-.19-1.12l-.8-6.32-1.04-8.32c-.5-4,.45-8.05,2.72-11.39,2.12-3.08,4.63-6.08,5.68-6.08.53,0,1.4.77,2.4,1.93,1,1.16,2.12,2.72,3.13,4.28,2.12,3.27,2.97,7.2,2.49,11.08l-1.16,9.07ZM29.27,16.77c0-1.76-1.42-3.16-3.16-3.16s-3.16,1.4-3.16,3.16,1.42,3.15,3.16,3.15,3.16-1.4,3.16-3.15ZM28.22,26.14c0-1.14-.92-2.04-2.04-2.04s-2.04.91-2.04,2.04.92,2.04,2.04,2.04,2.04-.92,2.04-2.04Z"/>
                <path id="path30" class="cls-8" d="M29.13,37.93c.59,1.15,1.7,4.59,1.54,5.89-.12,1.08-2.85,3.27-3.77,4.36-.19.23-.51.26-.73.05-1.23-1.15-4.07-3.05-4.41-4.15-.46-1.53.47-4.56,1.49-5.84.05,1.6,2.22,4.43,2.92,4.45.91,0,2.59-3.3,2.7-4.77.08,0,.17,0,.26-.01h0s0,.02,0,.02Z"/>
                <path id="path31" class="cls-1" d="M23.25,38.25c0-.12.01-.23.03-.32h5.6c-.11,1.47-1.8,4.77-2.7,4.77-.7-.01-2.87-2.85-2.92-4.45Z"/>
                <path id="path32" class="cls-7" d="M26.11,13.6c1.74,0,3.16,1.4,3.16,3.16s-1.42,3.15-3.16,3.15-3.16-1.4-3.16-3.15,1.42-3.16,3.16-3.16Z"/>
                <path id="path33" class="cls-7" d="M26.17,24.1c1.12,0,2.04.91,2.04,2.04s-.92,2.04-2.04,2.04-2.04-.92-2.04-2.04.92-2.04,2.04-2.04Z"/>
                <path id="path34" class="cls-7" d="M19.74,34.39c0,.39.07.77.19,1.12,0,.91-4.19,6.65-4.19,6.65-.63,0-1.14-7.04-1.14-7.04,0-.91,4.32-7.05,4.32-7.05h.01l.8,6.32h0Z"/>
              </g>
              <g id="g41">
                <path id="path35" class="cls-5" d="M28.88,37.93h-5.6c-1.55,0-2.89-1.01-3.35-2.42-.12-.35-.19-.73-.19-1.12l-.8-6.32-1.04-8.32c-.5-4,.45-8.05,2.72-11.39,2.12-3.08,4.63-6.08,5.68-6.08.53,0,1.4.77,2.4,1.93,1,1.16,2.12,2.72,3.13,4.28,2.12,3.27,2.97,7.2,2.49,11.08l-1.16,9.07-.74,5.76c0,.5-.11.99-.31,1.42-.5,1.18-1.64,2.01-2.97,2.11-.08.01-.17.01-.26.01Z"/>
                <path id="path36" class="cls-5" d="M29.27,16.77c0,1.74-1.42,3.15-3.16,3.15s-3.16-1.4-3.16-3.15,1.42-3.16,3.16-3.16,3.16,1.4,3.16,3.16Z"/>
                <path id="path37" class="cls-5" d="M28.22,26.14c0,1.12-.92,2.04-2.04,2.04s-2.04-.92-2.04-2.04.92-2.04,2.04-2.04,2.04.91,2.04,2.04Z"/>
                <path id="path38" class="cls-5" d="M19.93,35.51c0,.91-4.19,6.65-4.19,6.65-.63,0-1.14-7.04-1.14-7.04,0-.91,4.32-7.05,4.32-7.05"/>
                <path id="path39" class="cls-5" d="M32.13,35.82c0,.91,3.63,6.65,3.63,6.65.54,0,.99-7.03.99-7.03,0-.81-2.98-5.78-3.59-6.81-.08-.12-.12-.19-.12-.19"/>
                <path id="path40" class="cls-5" d="M23.28,37.93c-.01.09-.03.2-.03.32.05,1.6,2.22,4.43,2.92,4.45.91,0,2.59-3.3,2.7-4.77"/>
                <path id="path41" class="cls-5" d="M23.39,38.09c-.04.05-.08.09-.13.16-1.01,1.28-1.95,4.31-1.49,5.84.34,1.1,3.18,3,4.41,4.15.22.2.54.17.73-.05.92-1.1,3.65-3.28,3.77-4.36.16-1.3-.95-4.74-1.54-5.89"/>
              </g>
            </g>
            <circle id="circle42" class="cls-2" cx="27.57" cy="15.25" r="1.07"/>
            <circle id="circle43" class="cls-2" cx="27.1" cy="25" r=".71"/>
          </g>
          <line id="line43" class="cls-4" x1="19.74" y1="34.19" x2="32" y2="34.19"/>
          <path id="path43" class="cls-4" d="M18.93,11.84c2.04-1.63,4.65-2.53,7.27-2.5,2.61.03,5.2.98,7.21,2.65"/>
        </g>
      </g>
      <text class="cls-3" transform="translate(60.18 36.57)"><tspan x="0" y="0">SceneryStack</tspan></text>
    </g>
  </g>
</svg>