<?xml version="1.0" encoding="UTF-8"?>
<svg id="Layer_2" xmlns="http://www.w3.org/2000/svg" xmlns:xlink="http://www.w3.org/1999/xlink" viewBox="0 0 327.83 51.36">
  <defs>
    <style>
      .cls-1, .cls-2 {
        fill: #fff;
      }

      .cls-3 {
        stroke-width: 1.23px;
      }

      .cls-3, .cls-4 {
        fill: none;
        stroke: #1f3151;
      }

      .cls-3, .cls-4, .cls-5 {
        stroke-miterlimit: 10;
      }

      .cls-4 {
        stroke-width: .92px;
      }

      .cls-5 {
        fill: url(#linear-gradient);
        stroke: url(#linear-gradient-2);
      }

      .cls-6 {
        fill: #1f3151;
      }

      .cls-2 {
        font-family: NotoMono, 'Noto Mono';
        font-size: 37.17px;
      }
    </style>
    <linearGradient id="linear-gradient" x1="25.68" y1="50.86" x2="25.68" y2=".5" gradientUnits="userSpaceOnUse">
      <stop offset="0" stop-color="#fff"/>
      <stop offset="1" stop-color="#1f3151"/>
    </linearGradient>
    <linearGradient id="linear-gradient-2" x1="25.68" y1="51.36" x2="25.68" y2="0" gradientUnits="userSpaceOnUse">
      <stop offset="0" stop-color="#fff"/>
      <stop offset=".04" stop-color="#eeeff2"/>
      <stop offset=".18" stop-color="#b7bdc7"/>
      <stop offset=".32" stop-color="#8992a3"/>
      <stop offset=".46" stop-color="#626f85"/>
      <stop offset=".6" stop-color="#45546e"/>
      <stop offset=".74" stop-color="#30405e"/>
      <stop offset=".87" stop-color="#233454"/>
      <stop offset="1" stop-color="#1f3151"/>
    </linearGradient>
  </defs>
  <g id="Layer_1-2" data-name="Layer_1">
    <g>
      <g>
        <circle class="cls-5" cx="25.68" cy="25.68" r="25.18"/>
        <g id="g135">
          <g id="g134">
            <g id="g133">
              <g id="g125">
                <path id="path119" class="cls-6" d="M36.68,35.55s-.44,6.98-.98,6.98c0,0-3.61-5.7-3.61-6.6h-.03c.2-.46.31-.93.31-1.43l.73-5.72c.6.99,3.58,5.97,3.58,6.78h0Z"/>
                <path id="path120" class="cls-1" d="M33.1,28.77l-.73,5.72c0,.51-.11.98-.31,1.42-.51,1.17-1.62,2-2.95,2.09-.09.01-.17.01-.27.01h-5.54c-1.54,0-2.87-1-3.33-2.41-.12-.35-.19-.73-.19-1.12l-.79-6.26-1.03-8.26c-.5-3.97.44-8.01,2.7-11.31,2.09-3.06,4.59-6.04,5.64-6.04.52,0,1.4.77,2.39,1.92.99,1.15,2.11,2.7,3.11,4.24,2.11,3.26,2.95,7.16,2.46,11.02l-1.15,8.99h0ZM29.25,16.99c0-1.73-1.41-3.13-3.14-3.13s-3.14,1.4-3.14,3.13,1.41,3.14,3.14,3.14,3.14-1.4,3.14-3.14ZM28.19,26.32c0-1.13-.9-2.02-2.01-2.02s-2.02.9-2.02,2.02.9,2.01,2.02,2.01,2.01-.9,2.01-2.01Z"/>
                <path id="path121" class="cls-1" d="M29.11,38.02c.58,1.13,1.69,4.55,1.53,5.85-.13,1.07-2.83,3.25-3.74,4.33-.2.23-.51.25-.73.06-1.22-1.14-4.05-3.03-4.37-4.13-.47-1.52.46-4.53,1.48-5.8.03,1.57,2.19,4.41,2.9,4.43.89,0,2.58-3.27,2.67-4.74.09,0,.17,0,.27-.01h0s0,0,0,0Z"/>
                <path id="path122" class="cls-1" d="M23.28,38.32c0-.11.01-.21.03-.31h5.54c-.09,1.46-1.79,4.74-2.67,4.74-.71-.01-2.87-2.86-2.9-4.43Z"/>
                <path id="path123" class="cls-6" d="M26.11,13.87c1.73,0,3.14,1.4,3.14,3.13s-1.41,3.14-3.14,3.14-3.14-1.4-3.14-3.14,1.41-3.13,3.14-3.13Z"/>
                <path id="path124" class="cls-6" d="M26.18,24.29c1.12,0,2.01.9,2.01,2.02s-.9,2.01-2.01,2.01-2.02-.9-2.02-2.01.9-2.02,2.02-2.02Z"/>
                <path id="path125" class="cls-6" d="M19.79,34.49c0,.39.07.77.19,1.12,0,.91-4.17,6.6-4.17,6.6-.62,0-1.13-6.98-1.13-6.98,0-.9,4.29-7,4.29-7h.03s.79,6.26.79,6.26Z"/>
              </g>
              <g id="g132">
                <path id="path126" class="cls-3" d="M28.85,38.02h-5.54c-1.54,0-2.87-1-3.33-2.41-.12-.35-.19-.73-.19-1.12l-.79-6.26-1.03-8.26c-.5-3.97.44-8.01,2.7-11.31,2.09-3.06,4.59-6.04,5.64-6.04.52,0,1.4.77,2.39,1.92.99,1.15,2.11,2.7,3.11,4.24,2.11,3.26,2.95,7.16,2.46,11.02l-1.15,8.99-.73,5.72c0,.51-.11.98-.31,1.42-.51,1.17-1.62,2-2.95,2.09-.09.01-.17.01-.27.01Z"/>
                <path id="path127" class="cls-3" d="M29.25,16.99c0,1.74-1.41,3.14-3.14,3.14s-3.14-1.4-3.14-3.14,1.41-3.13,3.14-3.13,3.14,1.4,3.14,3.13Z"/>
                <path id="path128" class="cls-3" d="M28.19,26.32c0,1.12-.9,2.01-2.01,2.01s-2.02-.9-2.02-2.01.9-2.02,2.02-2.02,2.01.9,2.01,2.02Z"/>
                <path id="path129" class="cls-3" d="M19.98,35.6c0,.91-4.17,6.6-4.17,6.6-.62,0-1.13-6.98-1.13-6.98,0-.9,4.29-7,4.29-7"/>
                <path id="path130" class="cls-3" d="M32.09,35.92c0,.9,3.61,6.6,3.61,6.6.54,0,.98-6.98.98-6.98,0-.81-2.98-5.78-3.58-6.78-.07-.11-.11-.17-.11-.17"/>
                <path id="path131" class="cls-4" d="M23.31,38.02c-.01.09-.03.2-.03.31.03,1.57,2.19,4.41,2.9,4.43.89,0,2.58-3.27,2.67-4.74"/>
                <path id="path132" class="cls-4" d="M23.4,38.18s-.08.09-.12.15c-1.02,1.26-1.95,4.28-1.48,5.8.32,1.1,3.15,2.99,4.37,4.13.21.2.52.17.73-.06.91-1.09,3.61-3.26,3.74-4.33.16-1.3-.95-4.72-1.53-5.85"/>
              </g>
            </g>
            <circle id="circle133" class="cls-1" cx="27.56" cy="15.5" r="1.07"/>
            <circle id="circle134" class="cls-1" cx="27.37" cy="25.08" r=".71"/>
          </g>
          <line id="line134" class="cls-4" x1="20.3" y1="34.31" x2="33.03" y2="34.31"/>
          <path id="path134" class="cls-4" d="M18.98,12.11c2.03-1.62,4.62-2.51,7.21-2.48,2.59.03,5.17.97,7.16,2.63"/>
        </g>
      </g>
      <text class="cls-2" transform="translate(60.18 36.57)"><tspan x="0" y="0">SceneryStack</tspan></text>
    </g>
  </g>
</svg>