<?xml version="1.0" encoding="UTF-8"?>
<svg id="Layer_2" xmlns="http://www.w3.org/2000/svg" xmlns:xlink="http://www.w3.org/1999/xlink" viewBox="0 0 900 230">
  <defs>
    <style>
      .cls-1 {
        stroke: url(#linear-gradient);
        stroke-width: 2.32px;
      }

      .cls-1, .cls-2, .cls-3 {
        stroke-miterlimit: 10;
      }

      .cls-1, .cls-4, .cls-5 {
        fill: #fff;
      }

      .cls-6 {
        fill: #faa51a;
      }

      .cls-2 {
        stroke-width: 2.17px;
      }

      .cls-2, .cls-3 {
        fill: none;
        stroke: #1f3151;
      }

      .cls-5 {
        font-family: NotoMono, 'Noto Mono';
        font-size: 86.2px;
      }

      .cls-7 {
        fill: #1f3151;
      }

      .cls-3 {
        stroke-width: 1.45px;
      }

      .cls-8 {
        fill: #ffca37;
      }
    </style>
    <linearGradient id="linear-gradient" x1="128.83" y1="174.56" x2="128.83" y2="55.44" gradientUnits="userSpaceOnUse">
      <stop offset="0" stop-color="#fff"/>
      <stop offset="1" stop-color="#1f3151"/>
    </linearGradient>
  </defs>
  <g id="Layer_1-2" data-name="Layer_1">
    <g>
      <rect class="cls-7" width="900" height="230"/>
      <g>
        <g>
          <circle class="cls-1" cx="128.83" cy="115" r="58.4"/>
          <g>
            <g id="g43">
              <g id="g42">
                <g id="g34">
                  <path id="path28" class="cls-7" d="M154.52,137.63s-1.04,16.3-2.29,16.3c0,0-8.43-13.32-8.43-15.42l-.07-.03c.47-1,.72-2.13.72-3.29l1.72-13.35c1.41,2.38,8.33,13.92,8.33,15.79h0Z"/>
                  <path id="path29" class="cls-4" d="M146.18,121.84l-1.72,13.35c0,1.16-.25,2.29-.72,3.29-1.16,2.73-3.79,4.67-6.89,4.89-.19.03-.41.03-.59.03h-12.98c-3.61,0-6.71-2.35-7.77-5.61-.28-.82-.44-1.69-.44-2.6l-1.85-14.66-2.41-19.3c-1.16-9.28,1.04-18.67,6.3-26.41,4.92-7.15,10.75-14.11,13.16-14.11,1.22,0,3.26,1.79,5.58,4.48,2.32,2.69,4.92,6.3,7.27,9.93,4.92,7.58,6.89,16.7,5.76,25.7l-2.69,21.03ZM137.15,94.33c0-4.08-3.29-7.34-7.34-7.34s-7.34,3.26-7.34,7.34,3.29,7.3,7.34,7.3,7.34-3.26,7.34-7.3ZM134.71,116.07c0-2.64-2.13-4.74-4.74-4.74s-4.74,2.1-4.74,4.74,2.13,4.74,4.74,4.74,4.74-2.13,4.74-4.74Z"/>
                  <path id="path30" class="cls-8" d="M136.84,143.4c1.38,2.66,3.95,10.65,3.57,13.66-.28,2.51-6.61,7.58-8.74,10.12-.44.54-1.19.59-1.69.12-2.85-2.66-9.43-7.08-10.22-9.62-1.06-3.54,1.09-10.56,3.45-13.54.12,3.7,5.14,10.28,6.77,10.31,2.1,0,6.02-7.65,6.27-11.06.19,0,.41,0,.59-.03v.03h0Z"/>
                  <path id="path31" class="cls-6" d="M123.21,144.15c0-.28.03-.54.07-.75h12.98c-.25,3.42-4.17,11.06-6.27,11.06-1.63-.03-6.65-6.61-6.77-10.31Z"/>
                  <path id="path32" class="cls-7" d="M129.82,86.99c4.04,0,7.34,3.26,7.34,7.34s-3.29,7.3-7.34,7.3-7.34-3.26-7.34-7.3,3.29-7.34,7.34-7.34Z"/>
                  <path id="path33" class="cls-7" d="M129.98,111.34c2.6,0,4.74,2.1,4.74,4.74s-2.13,4.74-4.74,4.74-4.74-2.13-4.74-4.74,2.13-4.74,4.74-4.74Z"/>
                  <path id="path34" class="cls-7" d="M115.06,135.19c0,.91.16,1.79.44,2.6,0,2.1-9.72,15.42-9.72,15.42-1.47,0-2.64-16.33-2.64-16.33,0-2.1,10.03-16.36,10.03-16.36h.03l1.85,14.66h0Z"/>
                </g>
                <g id="g41">
                  <path id="path35" class="cls-2" d="M136.25,143.4h-12.98c-3.61,0-6.71-2.35-7.77-5.61-.28-.82-.44-1.69-.44-2.6l-1.85-14.66-2.41-19.3c-1.16-9.28,1.04-18.67,6.3-26.41,4.92-7.15,10.75-14.11,13.16-14.11,1.22,0,3.26,1.79,5.58,4.48,2.32,2.69,4.92,6.3,7.27,9.93,4.92,7.58,6.89,16.7,5.76,25.7l-2.69,21.03-1.72,13.35c0,1.16-.25,2.29-.72,3.29-1.16,2.73-3.79,4.67-6.89,4.89-.19.03-.41.03-.59.03Z"/>
                  <path id="path36" class="cls-2" d="M137.15,94.33c0,4.04-3.29,7.3-7.34,7.3s-7.34-3.26-7.34-7.3,3.29-7.34,7.34-7.34,7.34,3.26,7.34,7.34Z"/>
                  <path id="path37" class="cls-2" d="M134.71,116.07c0,2.6-2.13,4.74-4.74,4.74s-4.74-2.13-4.74-4.74,2.13-4.74,4.74-4.74,4.74,2.1,4.74,4.74Z"/>
                  <path id="path38" class="cls-2" d="M115.5,137.79c0,2.1-9.72,15.42-9.72,15.42-1.47,0-2.64-16.33-2.64-16.33,0-2.1,10.03-16.36,10.03-16.36"/>
                  <path id="path39" class="cls-2" d="M143.8,138.51c0,2.1,8.43,15.42,8.43,15.42,1.25,0,2.29-16.3,2.29-16.3,0-1.88-6.92-13.41-8.33-15.79-.19-.28-.28-.44-.28-.44"/>
                  <path id="path40" class="cls-2" d="M123.27,143.4c-.03.22-.07.47-.07.75.12,3.7,5.14,10.28,6.77,10.31,2.1,0,6.02-7.65,6.27-11.06"/>
                  <path id="path41" class="cls-2" d="M123.52,143.77c-.09.12-.19.22-.31.38-2.35,2.98-4.51,10-3.45,13.54.78,2.54,7.36,6.96,10.22,9.62.5.47,1.25.41,1.69-.12,2.13-2.54,8.46-7.62,8.74-10.12.38-3-2.19-11-3.57-13.66"/>
                </g>
              </g>
              <circle id="circle42" class="cls-4" cx="133.22" cy="90.81" r="2.49"/>
              <circle id="circle43" class="cls-4" cx="132.13" cy="113.43" r="1.66"/>
            </g>
            <line id="line43" class="cls-3" x1="115.07" y1="134.74" x2="143.48" y2="134.74"/>
            <path id="path43" class="cls-3" d="M113.17,82.89c4.74-3.78,10.79-5.87,16.85-5.8,6.05.07,12.07,2.27,16.73,6.15"/>
          </g>
        </g>
        <text class="cls-5" transform="translate(208.85 140.25)"><tspan x="0" y="0">SceneryStack</tspan></text>
      </g>
    </g>
  </g>
</svg>